<?xml version="1.0" encoding="utf-8"?>
<!-- Generator: Adobe Illustrator 24.3.0, SVG Export Plug-In . SVG Version: 6.00 Build 0)  -->
<svg version="1.1" id="Calque_5" xmlns="http://www.w3.org/2000/svg" xmlns:xlink="http://www.w3.org/1999/xlink" x="0px" y="0px"
	 viewBox="0 0 59 59" style="enable-background:new 0 0 59 59;" xml:space="preserve">
<style type="text/css">
	.st0{fill:#FFFFFF;stroke:#000000;stroke-width:0.5;stroke-linecap:round;stroke-linejoin:round;}
	.st1{fill:#3B82F6;stroke:#000000;stroke-width:0.5;stroke-linecap:round;stroke-linejoin:round;}
	.st2{fill:#FFFFFF;stroke:#FFFFFF;stroke-width:0.25;stroke-linecap:round;stroke-linejoin:round;}
</style>
<path class="st0" d="M29.3,43.3C29.3,43.3,29.2,43.3,29.3,43.3C29.2,43.2,29.2,43.2,29.3,43.3l21-9.2c0,0,0,0,0.1,0c0,0,0,0,0,0.1
	L29.3,43.3C29.3,43.3,29.3,43.3,29.3,43.3L29.3,43.3z"/>
<polygon class="st1" points="51.4,11.5 32.6,19.3 21.7,23.8 7.6,23.8 7.6,23.8 37.3,11.4 37.4,11.4 "/>
<polygon class="st1" points="28.7,35.7 21.6,47.6 7.6,47.5 0.6,35.6 7.6,23.8 21.7,23.8 21.7,23.8 "/>
<polygon class="st1" points="58.4,23.1 51.4,34.7 21.6,47.6 28.7,35.7 36.1,32.6 "/>
<polygon class="st1" points="58.4,23.1 36.1,32.6 28.7,35.7 21.7,23.8 21.7,23.8 32.6,19.3 51.4,11.5 51.4,11.5 "/>
<path class="st2" d="M14.7,21.7C14.7,21.7,14.7,21.7,14.7,21.7C14.7,21.6,14.7,21.6,14.7,21.7L36,12.8c0,0,0,0,0.1,0
	c0,0,0,0.1,0,0.1L14.7,21.7C14.7,21.7,14.7,21.7,14.7,21.7L14.7,21.7z"/>
</svg>
