<?xml version="1.0" encoding="UTF-8"?>
<svg id="Calque_5" data-name="Calque 5" xmlns="http://www.w3.org/2000/svg" viewBox="0 0 59 59">
  <defs>
    <style>
      .cls-1, .cls-2, .cls-3, .cls-4, .cls-5 {
        stroke-miterlimit: 10;
      }

      .cls-1, .cls-3, .cls-4, .cls-5 {
        stroke-width: .5px;
      }

      .cls-1, .cls-4, .cls-5 {
        stroke: #000;
        stroke-linecap: round;
      }

      .cls-1, .cls-6 {
        fill: #b4b2b2;
      }

      .cls-2 {
        stroke-width: .25px;
      }

      .cls-2, .cls-3 {
        fill: #fff;
        stroke: #fff;
      }

      .cls-4 {
        fill: none;
      }

      .cls-6 {
        stroke-width: 0px;
      }

      .cls-5 {
        fill: #d8d8d8;
      }
    </style>
  </defs>
  <path class="cls-5" d="m18.86,24.66c-.57-.3-1.18-.55-1.8-.75-.17-.05-.34-.1-.51-.15-.26-.07-.52-.14-.79-.19-.13-.03-.27-.06-.41-.08-.13-.03-.27-.05-.4-.06-.27-.04-.55-.07-.83-.09-.28-.02-.56-.03-.84-.03-.95,0-1.88.11-2.77.32h0c-.44.1-.87.23-1.29.38-.46.16-.91.36-1.35.57-4.03,2-6.81,6.15-6.81,10.96,0,1.11.15,2.18.42,3.2.29,1.07.73,2.09,1.28,3.02,2.13,3.61,6.05,6.02,10.53,6.02,1.3,0,2.55-.2,3.72-.58.83-.26,1.62-.61,2.36-1.04.51-.29,1-.62,1.46-.98.15-.12.3-.24.45-.37.46-.38.89-.81,1.28-1.28.13-.14.25-.29.36-.43.01-.02.02-.03.03-.04.09-.12.18-.25.27-.37.09-.13.18-.26.27-.39.35-.53.66-1.08.93-1.66.26-.58.48-1.19.66-1.82.29-1.04.45-2.14.45-3.27,0-4.75-2.71-8.87-6.66-10.89Z"/>
  <path class="cls-1" d="m58.29,20.94c0,4.57-2.43,8.53-6,10.53l-1.9.85-31.03,13.86c1.19-.69,2.26-1.58,3.14-2.63.13-.14.24-.29.36-.44.01-.01.02-.02.03-.04.1-.12.19-.24.27-.37.1-.13.19-.26.27-.39.7-1.05,1.24-2.22,1.59-3.47.29-1.04.45-2.14.45-3.28,0-4.75-2.7-8.86-6.66-10.89-1.67-.87-3.57-1.35-5.57-1.35-.95,0-1.88.11-2.77.32l13.68-5.8h.01s.77-.33.77-.33l1.34-.57.87-.37h.01s14.21-6.03,14.21-6.03h.01s.09-.04.09-.04l2.18-.93h.02s.46-.2.46-.2h.01c.91-.24,1.85-.38,2.82-.38,6.26,0,11.34,5.34,11.34,11.94Z"/>
  <path class="cls-2" d="m24.49,42.12s-.05-.01-.06-.04c-.01-.03,0-.07.03-.08l29-12.99s.07,0,.08.03c.01.03,0,.07-.03.08l-29,12.99s-.02,0-.03,0Z"/>
  <path class="cls-2" d="m16.64,23.07s-.05-.01-.06-.04c-.01-.03,0-.07.03-.08l29.78-12.62s.07,0,.08.03c.01.03,0,.07-.03.08l-29.78,12.62s-.02,0-.02,0Z"/>
  <path class="cls-6" d="m20.01,35.45c0,.4-.03.79-.1,1.17v.07c-.05.19-.1.38-.15.57-.19.69-.48,1.35-.87,1.93-.05.07-.1.15-.15.22-.04.07-.1.14-.15.21,0,0-.01.01-.01.02-.06.09-.13.16-.2.24-.5.58-1.09,1.07-1.75,1.46-.41.24-.84.44-1.29.58-.65.21-1.33.32-2.04.32-1.27,0-2.46-.36-3.47-.98-.02-.01-.04-.02-.06-.04-.93-.58-1.71-1.38-2.26-2.33-.3-.52-.54-1.08-.7-1.68-.15-.56-.24-1.16-.24-1.77,0-2.67,1.53-4.98,3.75-6.09.24-.12.48-.22.74-.31.23-.09.47-.15.71-.21h0c.49-.12,1-.18,1.52-.18,1.1,0,2.14.27,3.06.75,2.17,1.13,3.66,3.41,3.66,6.05Z"/>
  <path class="cls-3" d="m9.14,40.95s-.02,0-.02-.01c0-.01,0-.03.01-.03l10.84-4.87s.03,0,.03.01c0,.01,0,.03-.01.03l-10.84,4.87s0,0,0,0Z"/>
  <path class="cls-4" d="m20.24,35.54c0,.41-.03.81-.1,1.2l-.02.08c-.04.2-.08.39-.14.59-.19.71-.5,1.38-.9,1.97-.05.08-.1.15-.16.22-.05.07-.1.14-.15.21,0,0-.01.02-.02.02-.06.09-.13.17-.21.25-.51.59-1.12,1.1-1.81,1.49-.42.25-.87.45-1.34.59-.67.21-1.38.33-2.11.33-1.32,0-2.54-.37-3.59-1-.02-.01-.04-.02-.06-.04-.96-.59-1.77-1.41-2.34-2.38-.31-.53-.56-1.11-.72-1.72-.16-.58-.24-1.19-.24-1.81,0-2.73,1.58-5.09,3.87-6.23.24-.12.5-.23.76-.32.24-.09.48-.16.73-.21h0c.51-.12,1.03-.18,1.57-.18,1.14,0,2.22.27,3.17.76,2.25,1.15,3.78,3.49,3.78,6.19Z"/>
</svg>