<?xml version="1.0" encoding="utf-8"?>
<!-- Generator: Adobe Illustrator 24.3.0, SVG Export Plug-In . SVG Version: 6.00 Build 0)  -->
<svg version="1.1" id="Calque_5" xmlns="http://www.w3.org/2000/svg" xmlns:xlink="http://www.w3.org/1999/xlink" x="0px" y="0px"
	 viewBox="0 0 59 59" style="enable-background:new 0 0 59 59;" xml:space="preserve">
<style type="text/css">
	.st0{fill:#3B82F6;stroke:#000000;stroke-width:0.5;stroke-linecap:round;stroke-miterlimit:10;}
	.st1{fill:#FFFFFF;stroke:#FFFFFF;stroke-width:0.25;stroke-linecap:round;stroke-linejoin:round;}
</style>
<path class="st0" d="M25.4,36.6c0,1.1-0.1,2.2-0.4,3.2c-0.3,1.2-0.9,2.4-1.6,3.5c-0.1,0.1-0.2,0.3-0.3,0.4c-0.1,0.1-0.2,0.2-0.3,0.4
	c0,0,0,0,0,0c-0.1,0.2-0.2,0.3-0.4,0.4c-0.9,1-2,1.9-3.2,2.6c-0.7,0.4-1.5,0.8-2.3,1c-1.2,0.4-2.4,0.6-3.7,0.6
	c-4.4,0-8.4-2.4-10.5-6c-0.5-0.9-1-1.9-1.3-3c-0.3-1-0.4-2.1-0.4-3.2c0-4.8,2.8-8.9,6.8-10.9c0.4-0.2,0.9-0.4,1.3-0.6
	c0.4-0.1,0.8-0.3,1.3-0.4h0c0.9-0.2,1.8-0.3,2.8-0.3c2,0,3.9,0.5,5.5,1.3C22.7,27.8,25.3,31.9,25.4,36.6L25.4,36.6z"/>
<path class="st0" d="M57.9,22.1c0,4.5-2.4,8.5-6,10.4l-1.9,0.8L19.3,47.1c1.2-0.7,2.2-1.6,3.1-2.6c0.1-0.1,0.2-0.3,0.4-0.4
	c0,0,0,0,0,0c0.1-0.1,0.2-0.2,0.3-0.4c0.1-0.1,0.2-0.3,0.3-0.4c0.7-1,1.2-2.2,1.6-3.5c0.3-1,0.4-2.1,0.4-3.2c0-4.7-2.7-8.8-6.6-10.8
	c-1.7-0.9-3.5-1.3-5.5-1.3c-0.9,0-1.9,0.1-2.8,0.3L24,19h0l0.8-0.3l1.3-0.6l0.9-0.4h0l14.1-6h0l0.1,0l2.2-0.9h0l0.5-0.2h0
	c0.9-0.2,1.8-0.4,2.8-0.4C52.9,10.2,57.9,15.5,57.9,22.1L57.9,22.1z"/>
<path class="st1" d="M24.4,43.1C24.4,43.1,24.3,43.1,24.4,43.1c-0.1-0.1-0.1-0.1,0-0.1l28.8-12.9c0,0,0.1,0,0.1,0c0,0,0,0.1,0,0.1
	L24.4,43.1C24.4,43.1,24.4,43.1,24.4,43.1L24.4,43.1z"/>
<path class="st1" d="M16.6,24.2C16.6,24.2,16.6,24.2,16.6,24.2c-0.1-0.1-0.1-0.1,0-0.1l29.6-12.5c0,0,0.1,0,0.1,0c0,0,0,0.1,0,0.1
	L16.6,24.2L16.6,24.2L16.6,24.2z"/>
</svg>
