<?xml version="1.0" encoding="utf-8"?>
<!-- Generator: Adobe Illustrator 24.3.0, SVG Export Plug-In . SVG Version: 6.00 Build 0)  -->
<svg version="1.1" id="Calque_5" xmlns="http://www.w3.org/2000/svg" xmlns:xlink="http://www.w3.org/1999/xlink" x="0px" y="0px"
	 viewBox="0 0 59 59" style="enable-background:new 0 0 59 59;" xml:space="preserve">
<style type="text/css">
	.st0{fill:#3B82F6;stroke:#000000;stroke-width:0.5;stroke-linecap:round;stroke-miterlimit:10;}
	.st1{fill:#FFFFFF;stroke:#FFFFFF;stroke-width:0.25;stroke-miterlimit:10;}
	.st2{fill:#3B82F6;}
	.st3{fill:#FFFFFF;stroke:#FFFFFF;stroke-width:0.5;stroke-miterlimit:10;}
	.st4{fill:none;stroke:#000000;stroke-width:0.5;stroke-linecap:round;stroke-miterlimit:10;}
</style>
<path class="st0" d="M8.6,43.4C8.6,43.4,8.5,43.4,8.6,43.4 M18.8,24.7c-0.6-0.3-1.2-0.5-1.8-0.8c-0.2,0-0.3-0.1-0.5-0.1
	c-0.3-0.1-0.5-0.1-0.8-0.2c-0.1,0-0.3-0.1-0.4-0.1c-0.1,0-0.3,0-0.4-0.1c-0.3,0-0.6-0.1-0.8-0.1s-0.6,0-0.8,0
	c-0.9,0-1.9,0.1-2.8,0.3l0,0C10,23.7,9.6,23.9,9.2,24c-0.5,0.2-0.9,0.4-1.3,0.6c-4,2-6.8,6.1-6.8,11c0,1.1,0.1,2.2,0.4,3.2
	c0.3,1.1,0.7,2.1,1.3,3c2.1,3.6,6.1,6,10.5,6c1.3,0,2.6-0.2,3.7-0.6c0.8-0.3,1.6-0.6,2.4-1c0.5-0.3,1-0.6,1.5-1
	c0.1-0.1,0.3-0.2,0.5-0.4c0.5-0.4,0.9-0.8,1.3-1.3c0.1-0.1,0.2-0.3,0.4-0.4c0,0,0,0,0,0c0.1-0.1,0.2-0.2,0.3-0.4
	c0.1-0.1,0.2-0.3,0.3-0.4c0.4-0.5,0.7-1.1,0.9-1.7c0.3-0.6,0.5-1.2,0.7-1.8c0.3-1,0.5-2.1,0.5-3.3C25.5,30.8,22.8,26.7,18.8,24.7
	L18.8,24.7z"/>
<path class="st0" d="M58.3,20.9c0,4.6-2.4,8.5-6,10.5l-1.9,0.8l-31,13.9c1.2-0.7,2.3-1.6,3.1-2.6c0.1-0.1,0.2-0.3,0.4-0.4
	c0,0,0,0,0,0c0.1-0.1,0.2-0.2,0.3-0.4c0.1-0.1,0.2-0.3,0.3-0.4c0.7-1,1.2-2.2,1.6-3.5c0.3-1,0.5-2.1,0.5-3.3c0-4.8-2.7-8.9-6.7-10.9
	c-1.7-0.9-3.6-1.4-5.6-1.4c-0.9,0-1.9,0.1-2.8,0.3l13.7-5.8h0l0.8-0.3l1.3-0.6l0.9-0.4h0l14.2-6h0l0.1,0l2.2-0.9h0l0.5-0.2h0
	C45,9.1,46,9,47,9C53.2,9,58.3,14.3,58.3,20.9L58.3,20.9z"/>
<path class="st1" d="M24.5,42.1C24.5,42.1,24.4,42.1,24.5,42.1c-0.1-0.1-0.1-0.1,0-0.1l29-13c0,0,0.1,0,0.1,0c0,0,0,0.1,0,0.1
	L24.5,42.1C24.5,42.1,24.5,42.1,24.5,42.1L24.5,42.1z"/>
<path class="st1" d="M16.6,23.1C16.6,23.1,16.6,23.1,16.6,23.1c-0.1-0.1-0.1-0.1,0-0.1l29.8-12.6c0,0,0.1,0,0.1,0c0,0,0,0.1,0,0.1
	L16.6,23.1L16.6,23.1L16.6,23.1z"/>
<path class="st2" d="M24,35.8c0,0.6,0,1.2-0.2,1.8l0,0.1c-0.1,0.3-0.1,0.6-0.2,0.9c-0.3,1.1-0.8,2.1-1.4,3c-0.1,0.1-0.2,0.2-0.2,0.3
	c-0.1,0.1-0.1,0.2-0.2,0.3c0,0,0,0,0,0c-0.1,0.1-0.2,0.2-0.3,0.4c-0.8,0.9-1.7,1.7-2.8,2.3c-0.6,0.4-1.3,0.7-2,0.9
	c-1,0.3-2.1,0.5-3.2,0.5c-2,0-3.9-0.6-5.5-1.5c0,0-0.1,0-0.1-0.1c-1.5-0.9-2.7-2.1-3.6-3.6c-0.5-0.8-0.9-1.7-1.1-2.6
	c-0.2-0.9-0.4-1.8-0.4-2.8c0-4.1,2.4-7.7,5.9-9.5C9,26.1,9.4,26,9.8,25.8c0.4-0.1,0.7-0.2,1.1-0.3h0c0.8-0.2,1.6-0.3,2.4-0.3
	c1.7,0,3.4,0.4,4.9,1.2C21.7,28.1,24,31.7,24,35.8L24,35.8z"/>
<path class="st3" d="M5.8,42.8C5.8,42.8,5.8,42.8,5.8,42.8C5.7,42.8,5.7,42.8,5.8,42.8l17.9-8.6c0,0,0,0,0,0c0,0,0,0,0,0.1L5.8,42.8
	C5.8,42.8,5.8,42.8,5.8,42.8L5.8,42.8z"/>
<path class="st4" d="M23.9,35.5c0,0.6,0,1.2-0.2,1.8l0,0.1c-0.1,0.3-0.1,0.6-0.2,0.9c-0.3,1.1-0.8,2.1-1.4,3
	c-0.1,0.1-0.2,0.2-0.2,0.3c-0.1,0.1-0.1,0.2-0.2,0.3c0,0,0,0,0,0c-0.1,0.1-0.2,0.2-0.3,0.4c-0.8,0.9-1.7,1.7-2.8,2.3
	c-0.6,0.4-1.3,0.7-2,0.9c-1,0.3-2.1,0.5-3.2,0.5c-2,0-3.9-0.6-5.4-1.5c0,0-0.1,0-0.1-0.1c-1.5-0.9-2.7-2.1-3.5-3.6
	c-0.5-0.8-0.8-1.7-1.1-2.6c-0.2-0.9-0.4-1.8-0.4-2.8c0-4.1,2.4-7.7,5.9-9.5c0.4-0.2,0.8-0.4,1.2-0.5c0.4-0.1,0.7-0.2,1.1-0.3h0
	c0.8-0.2,1.6-0.3,2.4-0.3c1.7,0,3.4,0.4,4.8,1.2C21.6,27.9,23.9,31.4,23.9,35.5L23.9,35.5z"/>
</svg>
