<?xml version="1.0" encoding="utf-8"?>
<!-- Generator: Adobe Illustrator 24.3.0, SVG Export Plug-In . SVG Version: 6.00 Build 0)  -->
<svg version="1.1" id="Calque_5" xmlns="http://www.w3.org/2000/svg" xmlns:xlink="http://www.w3.org/1999/xlink" x="0px" y="0px"
	 viewBox="0 0 59 59" style="enable-background:new 0 0 59 59;" xml:space="preserve">
<style type="text/css">
	
		.st0{fill-rule:evenodd;clip-rule:evenodd;fill:#3B82F6;stroke:#000000;stroke-width:0.5;stroke-linecap:round;stroke-linejoin:round;}
	.st1{fill:#FFFFFF;stroke:#FFFFFF;stroke-width:0.25;stroke-miterlimit:10;}
	.st2{fill:#3B82F6;stroke:#000000;stroke-width:0.5;stroke-linecap:round;stroke-linejoin:round;}
</style>
<polygon class="st0" points="27.1,45.9 27.1,50.4 0.9,50.4 0.9,45.9 11.3,45.9 11.9,45.9 11.9,21.6 16.7,21.6 16.7,45.9 "/>
<polygon class="st0" points="58.1,31.7 58.1,36.3 27.1,50.4 27.1,45.9 "/>
<polygon class="st0" points="58.1,31.7 27.1,45.9 16.7,45.9 48,31.8 "/>
<polygon class="st0" points="48,8.6 48,31.8 16.7,45.9 16.7,21.6 "/>
<polygon class="st0" points="48,8.6 16.7,21.6 11.9,21.6 43.4,8.6 "/>
<path class="st1" d="M22.6,44.7C22.6,44.7,22.6,44.7,22.6,44.7c-0.1-0.1,0-0.1,0-0.1L49,32.9c0,0,0.1,0,0.1,0c0,0,0,0.1,0,0.1
	L22.6,44.7L22.6,44.7L22.6,44.7z"/>
<polygon class="st2" points="11.9,42.2 11.9,45.9 11.3,45.9 0.9,45.9 "/>
</svg>
