<?xml version="1.0" encoding="UTF-8"?>
<svg id="Calque_10" data-name="Calque 10" xmlns="http://www.w3.org/2000/svg" viewBox="0 0 59 59">
  <defs>
    <style>
      .cls-1 {
        stroke-linecap: square;
        stroke-linejoin: bevel;
      }

      .cls-1, .cls-2, .cls-3, .cls-4, .cls-5, .cls-6, .cls-7 {
        stroke-width: .5px;
      }

      .cls-1, .cls-2, .cls-5, .cls-6, .cls-7 {
        stroke: #000;
      }

      .cls-1, .cls-5, .cls-7 {
        fill: none;
      }

      .cls-2 {
        fill: #b4b2b2;
      }

      .cls-2, .cls-8, .cls-3, .cls-4, .cls-5, .cls-6, .cls-7 {
        stroke-miterlimit: 10;
      }

      .cls-2, .cls-4, .cls-5, .cls-6 {
        stroke-linecap: round;
      }

      .cls-8 {
        stroke-width: .25px;
      }

      .cls-8, .cls-3 {
        fill: #fff;
      }

      .cls-8, .cls-3, .cls-4 {
        stroke: #fff;
      }

      .cls-4 {
        fill: #ccc;
      }

      .cls-6 {
        fill: #d8d8d8;
      }
    </style>
  </defs>
  <path class="cls-6" d="m25.44,34.79c0-.1,0-.18-.02-.27,0-.18-.03-.34-.05-.51-.01-.1-.03-.19-.04-.29-.04-.26-.08-.51-.14-.77-.04-.18-.08-.36-.14-.54-.03-.17-.08-.33-.14-.49-.04-.17-.1-.33-.16-.5-.06-.16-.12-.32-.19-.48,0-.03-.01-.05-.03-.08h-.01s0-.04-.01-.05c-.03-.09-.07-.17-.11-.25-.08-.19-.17-.38-.27-.56-.06-.13-.13-.25-.2-.37-.22-.41-.47-.81-.75-1.19-.04-.07-.1-.14-.15-.2-.01-.02-.03-.05-.05-.07-.1-.14-.21-.28-.33-.42-.17-.21-.36-.41-.55-.61-.15-.17-.31-.32-.47-.47-.07-.07-.15-.14-.22-.2-.35-.33-.73-.63-1.12-.9-.16-.11-.32-.22-.48-.32-.14-.09-.28-.18-.43-.26-.19-.12-.38-.22-.57-.32-.57-.3-1.18-.55-1.8-.75-.17-.05-.34-.1-.51-.15-.26-.07-.52-.14-.79-.19-.13-.03-.27-.06-.41-.08-.13-.03-.27-.05-.4-.06-.27-.04-.55-.07-.83-.09-.28-.02-.56-.03-.84-.03-.95,0-1.88.11-2.77.32h0c-.44.1-.87.23-1.29.38-.46.16-.91.36-1.35.57-4.03,2-6.81,6.15-6.81,10.96,0,1.11.15,2.18.42,3.2.29,1.07.73,2.09,1.28,3.02,2.13,3.61,6.05,6.02,10.53,6.02,1.3,0,2.55-.2,3.72-.58.83-.26,1.62-.61,2.36-1.04.51-.29,1-.62,1.46-.98.15-.12.3-.24.45-.37.46-.38.89-.81,1.28-1.28.13-.14.25-.29.36-.43.01-.02.02-.03.03-.04.09-.12.18-.25.27-.37.09-.13.18-.26.27-.39.35-.53.66-1.08.93-1.66.26-.58.48-1.19.66-1.82.29-1.04.45-2.14.45-3.27,0-.26,0-.52-.03-.77Z"/>
  <path class="cls-2" d="m58.29,20.94c0,4.57-2.43,8.53-6,10.53l-1.9.85-31.03,13.86c1.19-.69,2.26-1.58,3.14-2.63.13-.14.24-.29.36-.44.01-.01.02-.02.03-.04.1-.12.19-.24.27-.37.1-.13.19-.26.27-.39.7-1.05,1.24-2.22,1.59-3.47.29-1.04.45-2.14.45-3.28,0-4.75-2.7-8.86-6.66-10.89-1.67-.87-3.57-1.35-5.57-1.35-.95,0-1.88.11-2.77.32l13.68-5.8h.01s.77-.33.77-.33l1.34-.57.87-.37h.01s14.21-6.03,14.21-6.03h.01s.09-.04.09-.04l2.18-.93h.02s.46-.2.46-.2h.01c.91-.24,1.85-.38,2.82-.38,6.26,0,11.34,5.34,11.34,11.94Z"/>
  <path class="cls-8" d="m24.49,42.12s-.05-.01-.06-.04c-.01-.03,0-.07.03-.08l29-12.99s.07,0,.08.03c.01.03,0,.07-.03.08l-29,12.99s-.02,0-.03,0Z"/>
  <path class="cls-8" d="m16.64,23.07s-.05-.01-.06-.04c-.01-.03,0-.07.03-.08l29.78-12.62s.07,0,.08.03c.01.03,0,.07-.03.08l-29.78,12.62s-.02,0-.02,0Z"/>
  <path class="cls-3" d="m5.31,43.13s-.03-.01-.04-.03c0-.02,0-.05.02-.06l18.66-9.02s.04,0,.05.02c0,.02,0,.05-.02.06l-18.66,9.02s-.01,0-.02,0Z"/>
  <path class="cls-2" d="m23.88,34.17h0s0-.08-.02-.11c-.49-3.52-2.69-6.5-5.74-8.05-1.46-.76-3.13-1.19-4.89-1.19-.83,0-1.65.1-2.43.29h0c-.39.08-.76.19-1.13.33-.41.14-.8.31-1.18.49-3.54,1.76-5.98,5.4-5.98,9.62,0,.97.13,1.92.37,2.81.25.94.64,1.83,1.12,2.64.42.71.91,1.37,1.49,1.96.01.02.03.05.06.07,1.95,2.01,4.68,3.26,7.69,3.26,1.14,0,2.24-.18,3.26-.51.73-.23,1.42-.53,2.07-.91,1.07-.61,2.01-1.39,2.8-2.31.11-.13.22-.25.32-.38,0-.01,0-.02.02-.03.09-.1.17-.22.24-.33.08-.11.16-.23.24-.34.62-.92,1.09-1.95,1.39-3.05.26-.91.4-1.88.4-2.88,0-.47-.03-.93-.09-1.38Z"/>
  <path class="cls-4" d="m5.57,42.89s-.03,0-.04-.03c0-.02,0-.05.02-.06l18.15-8.54s.04,0,.05.02c0,.02,0,.05-.02.06l-18.15,8.54s0,0-.02,0Z"/>
  <path class="cls-5" d="m23.88,34.17h0s0-.08-.02-.11c-.49-3.52-2.69-6.5-5.74-8.05-1.46-.76-3.13-1.19-4.89-1.19-.83,0-1.65.1-2.43.29h0c-.39.08-.76.19-1.13.33-.41.14-.8.31-1.18.49-3.54,1.76-5.98,5.4-5.98,9.62,0,.97.13,1.92.37,2.81.25.94.64,1.83,1.12,2.64.42.71.91,1.37,1.49,1.96.01.02.03.05.06.07,1.95,2.01,4.68,3.26,7.69,3.26,1.14,0,2.24-.18,3.26-.51.73-.23,1.42-.53,2.07-.91,1.07-.61,2.01-1.39,2.8-2.31.11-.13.22-.25.32-.38,0-.01,0-.02.02-.03.09-.1.17-.22.24-.33.08-.11.16-.23.24-.34.62-.92,1.09-1.95,1.39-3.05.26-.91.4-1.88.4-2.88,0-.47-.03-.93-.09-1.38Z"/>
  <path class="cls-7" d="m24.55,30.94s-.05-.02-.06-.04c-.02-.03,0-.08.04-.09l32.57-14.29s.08,0,.09.03c.02.03,0,.08-.04.09l-32.57,14.29s-.02,0-.03,0Z"/>
  <polygon class="cls-1" points="23.01 30.88 23 30.88 23.01 30.88 24.81 30.85 24.81 30.85 24.81 30.86 23.01 30.88 23.01 30.88"/>
</svg>